
<svg width="200" height="200" viewBox="0 0 200 200" xmlns="http://www.w3.org/2000/svg">
  <path d="M30,20 Q100,70 170,20 Q100,120 30,180 Q100,130 170,180 Q100,80 30,20 Z" fill="none" stroke="#00814A" stroke-width="1" opacity="0.3"/>
  <path d="M40,30 Q100,80 160,30 Q100,120 40,170 Q100,120 160,170 Q100,80 40,30 Z" fill="none" stroke="#C3A86B" stroke-width="1" opacity="0.3"/>
  <circle cx="50" cy="50" r="3" fill="#00814A" opacity="0.4"/>
  <circle cx="150" cy="50" r="3" fill="#C3A86B" opacity="0.4"/>
  <circle cx="50" cy="150" r="3" fill="#C3A86B" opacity="0.4"/>
  <circle cx="150" cy="150" r="3" fill="#00814A" opacity="0.4"/>
  <circle cx="100" cy="100" r="3" fill="#00814A" opacity="0.4"/>
  <text x="55" y="50" font-family="monospace" font-size="8" fill="#00814A" opacity="0.6">A</text>
  <text x="145" y="50" font-family="monospace" font-size="8" fill="#C3A86B" opacity="0.6">T</text>
  <text x="55" y="150" font-family="monospace" font-size="8" fill="#C3A86B" opacity="0.6">G</text>
  <text x="145" y="150" font-family="monospace" font-size="8" fill="#00814A" opacity="0.6">C</text>
</svg>
