
<svg width="100" height="100" viewBox="0 0 100 100" xmlns="http://www.w3.org/2000/svg">
  <path d="M10,50 C10,30 30,10 50,10 C70,10 90,30 90,50 C90,70 70,90 50,90 C30,90 10,70 10,50 Z" fill="none" stroke="#00814A" stroke-width="0.5" opacity="0.3"/>
  <path d="M30,50 C30,40 40,30 50,30 C60,30 70,40 70,50 C70,60 60,70 50,70 C40,70 30,60 30,50 Z" fill="none" stroke="#C3A86B" stroke-width="0.5" opacity="0.3"/>
  <circle cx="30" cy="30" r="2" fill="#00814A" opacity="0.15"/>
  <circle cx="70" cy="70" r="2" fill="#00814A" opacity="0.15"/>
  <circle cx="70" cy="30" r="2" fill="#C3A86B" opacity="0.15"/>
  <circle cx="30" cy="70" r="2" fill="#C3A86B" opacity="0.15"/>
</svg>
