
<svg width="200" height="200" viewBox="0 0 200 200" xmlns="http://www.w3.org/2000/svg">
  <circle cx="100" cy="100" r="98" fill="none" stroke="#00814A" stroke-width="0.5" opacity="0.3"/>
  
  <!-- DNA Double Helix Pattern -->
  <path d="M50,40 C80,70 120,30 150,60" stroke="#00814A" stroke-width="1" fill="none" opacity="0.5"/>
  <path d="M50,60 C80,90 120,50 150,80" stroke="#00814A" stroke-width="1" fill="none" opacity="0.5"/>
  <path d="M50,80 C80,110 120,70 150,100" stroke="#00814A" stroke-width="1" fill="none" opacity="0.5"/>
  <path d="M50,100 C80,130 120,90 150,120" stroke="#00814A" stroke-width="1" fill="none" opacity="0.5"/>
  <path d="M50,120 C80,150 120,110 150,140" stroke="#00814A" stroke-width="1" fill="none" opacity="0.5"/>
  
  <!-- Base pairs -->
  <line x1="70" y1="60" x2="130" y2="60" stroke="#C3A86B" stroke-width="0.8" opacity="0.6"/>
  <line x1="70" y1="80" x2="130" y2="80" stroke="#C3A86B" stroke-width="0.8" opacity="0.6"/>
  <line x1="70" y1="100" x2="130" y2="100" stroke="#C3A86B" stroke-width="0.8" opacity="0.6"/>
  <line x1="70" y1="120" x2="130" y2="120" stroke="#C3A86B" stroke-width="0.8" opacity="0.6"/>
  <line x1="70" y1="140" x2="130" y2="140" stroke="#C3A86B" stroke-width="0.8" opacity="0.6"/>
  
  <!-- Genetic Code Points -->
  <circle cx="70" cy="60" r="3" fill="#00814A" opacity="0.8"/>
  <circle cx="130" cy="60" r="3" fill="#C3A86B" opacity="0.8"/>
  <circle cx="70" cy="100" r="3" fill="#00814A" opacity="0.8"/>
  <circle cx="130" cy="100" r="3" fill="#C3A86B" opacity="0.8"/>
  <circle cx="70" cy="140" r="3" fill="#00814A" opacity="0.8"/>
  <circle cx="130" cy="140" r="3" fill="#C3A86B" opacity="0.8"/>
  
  <!-- Genetic Letters -->
  <text x="67" y="55" font-family="monospace" font-size="8" fill="#00814A" opacity="0.9">A</text>
  <text x="127" y="55" font-family="monospace" font-size="8" fill="#C3A86B" opacity="0.9">T</text>
  <text x="67" y="95" font-family="monospace" font-size="8" fill="#00814A" opacity="0.9">G</text>
  <text x="127" y="95" font-family="monospace" font-size="8" fill="#C3A86B" opacity="0.9">C</text>
  <text x="67" y="135" font-family="monospace" font-size="8" fill="#00814A" opacity="0.9">T</text>
  <text x="127" y="135" font-family="monospace" font-size="8" fill="#C3A86B" opacity="0.9">A</text>
</svg>
